HIERARCHY
ROOT Hips
{
	OFFSET 0.000000 0.000000 0.000000
	CHANNELS 6 Xposition Yposition Zposition Zrotation Yrotation Xrotation 
	JOINT LHipJoint
	{
		OFFSET 0.000000 0.000000 0.000000
		CHANNELS 3 Zrotation Yrotation Xrotation
		JOINT LeftUpLeg
		{
			OFFSET 1.363060 -1.794630 0.839290
			CHANNELS 3 Zrotation Yrotation Xrotation
			JOINT LeftLeg
			{
				OFFSET 2.448110 -6.726130 0.000000
				CHANNELS 3 Zrotation Yrotation Xrotation
				JOINT LeftFoot
				{
					OFFSET 2.562200 -7.039590 0.000000
					CHANNELS 3 Zrotation Yrotation Xrotation
					JOINT LeftToeBase
					{
						OFFSET 0.157640 -0.433110 2.322550
						CHANNELS 3 Zrotation Yrotation Xrotation
						End Site
						{
							OFFSET 0.000000 0.000000 0.000000
						}
					}
				}
			}
		}
	}
	JOINT RHipJoint
	{
		OFFSET 0.000000 0.000000 0.000000
		CHANNELS 3 Zrotation Yrotation Xrotation
		JOINT RightUpLeg
		{
			OFFSET -1.305520 -1.794630 0.839290
			CHANNELS 3 Zrotation Yrotation Xrotation
			JOINT RightLeg
			{
				OFFSET -2.542530 -6.985550 0.000000
				CHANNELS 3 Zrotation Yrotation Xrotation
				JOINT RightFoot
				{
					OFFSET -2.568260 -7.056230 0.000000
					CHANNELS 3 Zrotation Yrotation Xrotation
					JOINT RightToeBase
					{
						OFFSET -0.164730 -0.452590 2.363150
						CHANNELS 3 Zrotation Yrotation Xrotation
						End Site
						{
							OFFSET 0.000000 0.000000 0.000000
						}
					}
				}
			}
		}
	}
}
MOTION
Frames: 16
Frame Time: 0.008333
-3.261543 16.301707 -0.206129 -129.735306 88.598607 -98.432189 -13.708076 1.937027 -3.033126 -3.480161 7.718300 -16.211461 0.397892 2.456217 49.837823 2.657341 17.390236 8.405721 4.323500 0.000000 -38.432900 6.290792 -0.421911 2.237277 11.317853 9.047466 -59.947041 2.797761 -2.419535 35.067099 -0.573350 0.212272 -8.621268 -0.201001 -0.000000 -41.098500
-3.030394 16.160063 -0.194586 -119.841839 88.384583 -89.026521 -13.831433 1.801671 -3.142360 -3.121365 7.839491 -16.461137 0.547768 2.605728 52.692115 2.679406 17.502041 7.064871 3.987600 0.000000 -37.579200 6.230432 -0.510638 2.033698 11.755305 9.600045 -60.605674 2.460873 -2.906283 39.916594 -0.686950 0.228286 -10.623824 -0.071200 0.000000 -37.737400
-2.803740 16.024298 -0.183699 -111.202778 88.089899 -80.906554 -13.928438 1.663299 -3.279086 -2.769500 7.899024 -16.720297 0.698377 2.774626 55.561933 2.704754 17.648592 5.568312 3.615400 -0.000000 -36.638200 6.201253 -0.567400 1.807368 12.242335 10.124383 -60.951228 2.155079 -3.306015 44.360284 -0.831664 0.104457 -12.785189 0.062700 0.000000 -35.005400
-2.581516 15.897188 -0.173144 -103.897255 87.734768 -74.146397 -14.005744 1.524523 -3.443847 -2.442607 7.904635 -17.000110 0.849403 2.963127 58.423237 2.734910 17.840189 3.919383 3.205500 0.000000 -35.483800 6.195668 -0.602994 1.559166 12.779789 10.609876 -60.967331 1.891608 -3.628662 48.336538 -1.003879 -0.148993 -15.052668 0.214700 0.000000 -33.026300
-2.363645 15.780584 -0.162519 -97.896942 87.342849 -68.693734 -14.068455 1.385696 -3.626935 -2.164113 7.845307 -17.346648 1.003057 3.167927 61.269522 2.772497 18.088360 2.154610 2.764100 -0.000000 -34.256600 6.207278 -0.626439 1.298597 13.350480 11.051564 -60.682653 1.674382 -3.885266 51.807874 -1.200438 -0.521106 -17.365418 0.398201 -0.000000 -31.788100
-2.149588 15.676005 -0.151187 -92.935084 86.934565 -64.269387 -14.114040 1.248023 -3.823261 -1.953078 7.726003 -17.782211 1.159780 3.384348 64.079842 2.818336 18.392190 0.295813 2.289600 -0.000000 -32.865300 6.237218 -0.641484 1.030040 13.933573 11.438326 -60.124550 1.502587 -4.087896 54.771944 -1.415492 -0.987652 -19.667819 0.622600 -0.000000 -31.203200
-1.938916 15.584266 -0.138421 -88.726476 86.529632 -60.579683 -14.138412 1.113652 -4.026695 -1.825457 7.554291 -18.323583 1.319652 3.606828 66.831546 2.873372 18.749539 -1.618536 1.785199 -0.000000 -31.364100 6.288685 -0.648170 0.759140 14.502109 11.763214 -59.329319 1.372040 -4.246260 57.247228 -1.641680 -1.520289 -21.905761 0.890500 0.000001 -31.116400
-1.730684 15.505620 -0.123514 -85.045021 86.144029 -57.384788 -14.136368 0.985191 -4.230137 -1.793572 7.337348 -18.990598 1.481263 3.829756 69.501531 2.937918 19.154015 -3.559032 1.251900 -0.000000 -29.710200 6.366025 -0.643616 0.493136 15.027259 12.024861 -58.345159 1.277002 -4.367602 59.266026 -1.870276 -2.087533 -24.028518 1.196400 -0.000000 -31.343600
-1.523995 15.439836 -0.105769 -81.686129 85.790871 -54.471164 -14.103540 0.865478 -4.426884 -1.864533 7.085307 -19.793629 1.642426 4.047546 72.063980 3.012124 19.598975 -5.492905 0.692999 -0.000000 -27.921300 6.473115 -0.624080 0.239467 15.482086 12.226746 -57.220149 1.210898 -4.457409 60.873556 -2.091949 -2.657002 -25.994454 1.527699 0.000000 -31.700700
-1.317881 15.386319 -0.084683 -78.489858 85.478217 -51.671072 -14.037117 0.757014 -4.609877 -2.039745 6.807964 -20.739240 1.800100 4.255051 74.492525 3.095887 20.077580 -7.391870 0.112799 0.000000 -26.016800 6.612225 -0.586206 0.006237 15.845335 12.377464 -56.002822 1.167193 -4.519762 62.121533 -2.297875 -3.198477 -27.772001 1.867400 -0.000000 -32.037700
-1.111266 15.344263 -0.060002 -75.329853 85.208930 -48.849963 -13.936079 0.661309 -4.772560 -2.314791 6.513926 -21.831225 1.950503 4.448026 76.761213 3.188892 20.583237 -9.234030 -0.484400 0.000000 -24.016900 6.783393 -0.527671 -0.198952 16.103499 12.489488 -54.738380 1.139893 -4.557606 63.062674 -2.481065 -3.687694 -29.341451 2.197300 -0.000000 -32.260800
-0.903364 15.312819 -0.031786 -72.111402 84.981699 -45.910593 -13.803071 0.578973 -4.907769 -2.678828 6.210149 -23.066105 2.089745 4.623030 78.845320 3.290424 21.108725 -11.000650 -1.093399 0.000000 -21.980500 6.982749 -0.449274 -0.368855 16.253391 12.576489 -53.461603 1.124013 -4.572956 63.746190 -2.637410 -4.108850 -30.696765 2.501700 0.000000 -32.334600
-0.693334 15.291202 -0.000431 -68.772101 84.790202 -42.786907 -13.642225 0.509048 -5.010527 -3.116773 5.900928 -24.437592 2.213293 4.778181 80.721098 3.399293 21.644750 -12.686638 -1.711500 0.000000 -19.908599 7.203792 -0.353103 -0.499334 16.300104 12.651466 -52.198147 1.116087 -4.566967 64.211423 -2.765935 -4.455184 -31.844216 2.770301 -0.000000 -32.271200
-0.480711 15.278800 0.033390 -65.294794 84.626463 -39.464667 -13.461531 0.448864 -5.075768 -3.607343 5.588045 -25.931857 2.317215 4.912332 82.367440 3.513599 22.179184 -14.286528 -2.334399 0.000000 -17.864300 7.435687 -0.245313 -0.588074 16.258465 12.724317 -50.958295 1.114238 -4.540185 64.485654 -2.869156 -4.730598 -32.801365 2.999400 0.000001 -32.111800
-0.265168 15.275219 0.068799 -61.702220 84.482851 -35.971777 -13.269659 0.394204 -5.100415 -4.128437 5.269839 -27.530179 2.397571 5.025020 83.764246 3.630760 22.696235 -15.802608 -2.958000 -0.000000 -15.887300 7.666138 -0.133717 -0.636526 16.147083 12.799533 -49.739225 1.118246 -4.492795 64.581884 -2.951951 -4.946406 -33.593315 3.191500 -0.000000 -31.909100
-0.046576 15.280384 0.104812 -58.059866 84.354194 -32.381081 -13.075053 0.339687 -5.083262 -4.657095 4.942126 -29.208804 2.450668 5.116074 84.893896 3.747391 23.175239 -17.243259 -3.578800 0.000000 -13.978900 7.882574 -0.027573 -0.649362 15.987276 12.876166 -48.526097 1.129338 -4.424874 64.498743 -3.020860 -5.120024 -34.248742 3.354100 0.000000 -31.713800
